<?xml version="1.0" encoding="utf-8"?>
<!-- Generator: Adobe Illustrator 19.0.0, SVG Export Plug-In . SVG Version: 6.00 Build 0)  -->
<svg version="1.1" id="Layer_1" xmlns="http://www.w3.org/2000/svg" xmlns:xlink="http://www.w3.org/1999/xlink" x="0px" y="0px"
	 width="298px" height="151.5px" viewBox="0 0 298 151.5" style="enable-background:new 0 0 298 151.5;" xml:space="preserve">
<style type="text/css">
	.st0{fill-rule:evenodd;clip-rule:evenodd;fill:#FFFFFF;}
	.st1{fill-rule:evenodd;clip-rule:evenodd;fill:#FED110;}
	.st2{fill-rule:evenodd;clip-rule:evenodd;fill:#FFF200;}
</style>
<path class="st0" d="M89.8,118.8H56c-8.1,0-14.5-3.5-19.2-10.6c-4.2-6.3-6.3-14.1-6.3-23.4c0-9.5,2.1-17.5,6.4-24.2
	c4.8-7.3,11.1-11,19.1-11h33.9v14.6H58.5c-3.7,0-6.7,2-8.8,6c-1.9,3.6-2.9,8-2.9,13.3c0,5.4,1,10.1,3,13.9c2.2,4.2,5.1,6.4,8.8,6.4
	h31.3V118.8z"/>
<polygon class="st0" points="164.9,64.2 149.2,64.2 149.2,118.8 134.1,118.8 134.1,64.2 118.5,64.2 118.5,49.6 164.9,49.6 "/>
<path class="st0" d="M229.9,93.2c0,8-3.1,14.4-9.3,19.1c-5.6,4.3-12.4,6.4-20.5,6.4c-7.9,0-14.6-2.1-19.9-6.3c-6-4.7-9-11.1-9-19.3
	V49.5h15v41.3c0,3.7,1.5,6.6,4.6,8.8c2.8,2,6.2,3,10.3,3c3.9,0,7.1-1,9.7-2.9c3-2.2,4.4-5.1,4.4-8.9V49.5h14.6V93.2z"/>
<path class="st0" d="M294.6,64.2h-36.8c-1.7,0-3,0.6-4,1.9c-1,1.3-1.5,2.7-1.5,4.4c0,1.7,0.5,3.1,1.4,4.3c0.9,1.2,2.3,1.8,4,1.8
	h21.7c5.8,0,10.5,2.2,13.9,6.6c3.1,4,4.6,8.8,4.6,14.5c0,5.7-1.5,10.6-4.6,14.5c-3.4,4.4-8,6.6-13.9,6.6H240v-14.7h37
	c1.6,0,2.8-0.7,3.8-2c0.9-1.2,1.3-2.7,1.3-4.4c0-1.7-0.4-3.1-1.3-4.3c-0.9-1.2-2.2-1.8-3.8-1.8h-21.7c-5.9,0-10.5-2.2-14-6.5
	c-3.1-3.9-4.7-8.7-4.7-14.4c0-5.7,1.5-10.5,4.6-14.4c3.5-4.4,8.1-6.6,14-6.6h39.4V64.2z"/>
<polygon class="st0" points="112.2,118.8 96.5,118.8 96.5,49.6 112.2,41.2 "/>
<polygon class="st1" points="55.2,0 55,0.2 54.9,19.3 55.2,19.5 96.4,49.6 96.6,49.8 111.9,41.6 112.2,41.2 "/>
<polygon class="st1" points="0,39.1 0,39.1 0.1,151.5 1,151.3 15.7,139.1 15.8,138.4 15.8,45.9 15.8,45.8 0,39.1 "/>
<polygon class="st2" points="15.8,47.3 0,39.1 55.2,0 55.2,19.5 "/>
<polygon class="st2" points="0,151.7 15.8,135.8 198.7,135.8 198.7,151.7 "/>
</svg>
