<?xml version="1.0" encoding="utf-8"?>
<!-- Generator: Adobe Illustrator 21.0.2, SVG Export Plug-In . SVG Version: 6.00 Build 0)  -->
<svg version="1.1" id="Layer_1" xmlns="http://www.w3.org/2000/svg" xmlns:xlink="http://www.w3.org/1999/xlink" x="0px" y="0px"
	 viewBox="0 0 595.3 419.5" style="enable-background:new 0 0 595.3 419.5;" xml:space="preserve">
<style type="text/css">
	.st0{fill:#FFFFFF;}
</style>
<path class="st0" d="M313.8-115.2c0.2-0.1,0.3-0.3,0.5-0.4c0.2-0.2,0.3-0.3,0.4-0.5c0.3-0.3,0.5-0.7,0.8-1.1c0.5-0.7,1-1.5,1.4-2.3
	c0.4-0.8,0.7-1.6,0.8-2.4c0.1-0.4,0-0.8-0.1-1.1c-0.1-0.3-0.4-0.5-0.7-0.7l0.7-0.2c-0.5,1-1.1,1.9-1.7,2.8c-0.6,0.9-1.3,1.8-2.2,2.5
	c-0.4,0.4-0.9,0.7-1.5,0.9c-0.3,0.1-0.6,0.2-1,0.2c-0.2,0-0.3,0-0.5,0c-0.2,0-0.3-0.1-0.5-0.1c-1.2-0.4-2.1-1.3-2.8-2.2
	c-1.3-1.8-2.1-4-2.5-6.2c-0.2-1.1-0.3-2.2-0.1-3.4c0.1-0.6,0.3-1.2,0.6-1.8c0.3-0.6,1-1.1,1.7-1.3c0.3-0.1,0.8-0.1,1.2,0
	c0.4,0.1,0.8,0.4,1,0.7c0.5,0.6,0.6,1.2,0.7,1.8c0.2,1.2,0.2,2.3,0.1,3.4c-0.1,1.1-0.2,2.2-0.4,3.3c-0.1,0.5-0.2,1.1-0.4,1.6
	c-0.1,0.3-0.2,0.5-0.3,0.8c-0.1,0.1-0.1,0.3-0.2,0.4c0,0.1-0.1,0.2-0.1,0.2l-0.1,0.2c-0.3,0.4-0.5,0.9-1,1.4c-0.4,0.5-1,0.9-1.7,1.1
	c-0.2,0.1-0.3,0.1-0.5,0.1l-0.1,0h0l0,0l0,0c-0.1,0-0.2,0-0.2,0l-0.1,0l-0.1,0l-0.1,0c-0.3-0.1-0.6-0.3-0.8-0.4
	c-0.5-0.3-0.9-0.6-1.4-0.9c-1.8-1.2-3.5-2.5-5.2-3.9l0.6,0.2c-0.1,0-0.2,0-0.2,0c0,0,0.1-0.1,0.1-0.2c0-0.1,0,0.2,0.1,0.4
	c0.2,0.5,0.6,1,0.9,1.4c0.7,1,1.6,1.9,2.4,2.9c0.4,0.5,0.8,1,1.1,1.7c0.1,0.2,0.2,0.4,0.2,0.8c0,0.2-0.1,0.5-0.3,0.7
	c-0.1,0.1-0.2,0.2-0.3,0.2l-0.1,0.1l0,0c-0.3,0.1-0.5,0.2-0.8,0.4c-0.1,0.1-0.2,0.1-0.3,0.2c-0.1,0,0,0,0-0.2
	c-0.1-0.2-0.1-0.2-0.1-0.2c0.1,0,0.2,0.1,0.3,0.2c0.5,0.2,1.1,0.4,1.7,0.5c2.4,0.6,4.9,1.2,7.2,2.3c1.2,0.5,2.3,1.2,3.2,2.1
	c0.5,0.5,0.9,1,1.1,1.6c0.3,0.6,0.4,1.2,0.4,1.9c-0.2-1.3-0.9-2.3-1.9-3c-1-0.7-2.1-1.2-3.3-1.6c-1.2-0.4-2.4-0.7-3.6-1
	c-1.2-0.3-2.4-0.5-3.7-0.8c-0.6-0.2-1.2-0.3-1.9-0.6c-0.2-0.1-0.3-0.2-0.5-0.3c-0.2-0.1-0.5-0.3-0.6-0.9c0-0.3,0-0.5,0.1-0.7
	c0.1-0.2,0.2-0.3,0.3-0.4c0.2-0.2,0.3-0.3,0.5-0.4c0.3-0.2,0.7-0.4,0.9-0.5l0.1,0c0,0,0,0,0,0c0,0-0.1,0-0.1,0.1
	c-0.1,0.1-0.1,0.2-0.1,0.2c0,0.1,0,0,0-0.1c-0.2-0.4-0.6-0.9-0.9-1.4c-0.8-1-1.6-1.9-2.4-2.9c-0.4-0.5-0.8-1-1.1-1.7
	c-0.1-0.2-0.2-0.4-0.2-0.6c-0.1-0.2-0.1-0.5,0-0.9c0.1-0.4,0.4-0.7,0.7-0.9c0.3-0.1,0.5-0.2,0.7-0.2l0.3,0l0.3,0.2
	c1.7,1.3,3.3,2.6,5.1,3.8c0.4,0.3,0.9,0.6,1.3,0.8c0.2,0.1,0.4,0.2,0.6,0.3l0.1,0l0,0c0,0,0,0,0,0c0,0-0.1,0-0.1,0l0.1,0h0l0,0
	c0,0,0.1,0-0.1,0c0.1,0,0.2,0,0.3-0.1c0.4-0.1,0.6-0.3,0.9-0.6c0.3-0.3,0.5-0.7,0.8-1.2c0.5-0.7,0.7-1.7,1-2.7c0.2-1,0.4-2,0.4-3
	c0.1-1,0.1-2.1-0.1-3c-0.1-0.5-0.2-0.9-0.4-1.2c-0.2-0.2-0.3-0.3-0.7-0.2c-0.6,0.1-1.1,0.9-1.2,1.8c-0.2,0.9-0.1,2,0.1,3
	c0.3,2,1,4,2.2,5.6c0.6,0.8,1.3,1.5,2.1,1.8c0.1,0,0.2,0.1,0.3,0.1c0,0,0.3,0,0.3,0c0.2,0,0.4,0,0.6-0.1c0.4-0.1,0.8-0.4,1.2-0.7
	c0.8-0.6,1.4-1.4,2.1-2.2c0.6-0.8,1.2-1.7,1.7-2.6l0.2-0.4l0.4,0.2c0.5,0.3,0.9,0.7,1.1,1.3c0.2,0.5,0.2,1.1,0.1,1.5
	c-0.2,1-0.6,1.8-1.1,2.6c-0.5,0.8-1,1.5-1.6,2.2c-0.3,0.3-0.6,0.7-0.9,1c-0.2,0.2-0.3,0.3-0.5,0.5
	C314.2-115.5,314-115.3,313.8-115.2"/>
</svg>
